<svg xmlns="http://www.w3.org/2000/svg" viewBox="0 0 600 500" width="600" height="500" fill="none" role="img" aria-label="Make My CV hero illustration">
  <defs>
    <linearGradient id="heroGold" x1="200" y1="100" x2="400" y2="400" gradientUnits="userSpaceOnUse">
      <stop stop-color="#e8c97a"></stop>
      <stop offset="1" stop-color="#c9a84c"></stop>
    </linearGradient>
    <linearGradient id="heroDoc" x1="220" y1="120" x2="380" y2="380" gradientUnits="userSpaceOnUse">
      <stop stop-color="#0d0d18"></stop>
      <stop offset="1" stop-color="#080d1a"></stop>
    </linearGradient>
  </defs>

  
  <ellipse cx="300" cy="250" rx="210" ry="210" stroke="#c9a84c" stroke-opacity="0.07" stroke-width="1" stroke-dasharray="4 6"></ellipse>
  
  <ellipse cx="300" cy="250" rx="155" ry="155" stroke="#c9a84c" stroke-opacity="0.1" stroke-width="1" stroke-dasharray="3 5"></ellipse>

  
  <rect x="205" y="130" width="190" height="240" rx="10" fill="url(#heroDoc)" stroke="url(#heroGold)" stroke-width="1.8"></rect>
  
  <path d="M360 130 L395 165 L360 165 Z" fill="#c9a84c" opacity="0.18"></path>
  <path d="M360 130 L395 165" stroke="#c9a84c" stroke-width="1.5" stroke-opacity="0.6"></path>

  
  
  <rect x="222" y="158" width="110" height="7" rx="2" fill="#c9a84c" opacity="0.55"></rect>
  <rect x="222" y="171" width="75" height="4" rx="2" fill="#f5f4f0" opacity="0.18"></rect>

  
  <rect x="222" y="194" width="50" height="4" rx="2" fill="#c9a84c" opacity="0.4"></rect>
  <rect x="222" y="204" width="155" height="3.5" rx="2" fill="#f5f4f0" opacity="0.13"></rect>
  <rect x="222" y="212" width="130" height="3.5" rx="2" fill="#f5f4f0" opacity="0.13"></rect>
  <rect x="222" y="220" width="145" height="3.5" rx="2" fill="#f5f4f0" opacity="0.13"></rect>

  
  <rect x="222" y="242" width="45" height="4" rx="2" fill="#c9a84c" opacity="0.4"></rect>
  <rect x="222" y="252" width="48" height="14" rx="7" fill="none" stroke="#c9a84c" stroke-opacity="0.3" stroke-width="1"></rect>
  <rect x="276" y="252" width="42" height="14" rx="7" fill="none" stroke="#c9a84c" stroke-opacity="0.3" stroke-width="1"></rect>
  <rect x="324" y="252" width="50" height="14" rx="7" fill="none" stroke="#c9a84c" stroke-opacity="0.3" stroke-width="1"></rect>

  
  <rect x="222" y="284" width="55" height="4" rx="2" fill="#c9a84c" opacity="0.4"></rect>
  <rect x="222" y="294" width="155" height="3.5" rx="2" fill="#f5f4f0" opacity="0.13"></rect>
  <rect x="222" y="302" width="110" height="3.5" rx="2" fill="#f5f4f0" opacity="0.13"></rect>

  
  <text x="300" y="340" font-family="&#39;Cormorant Garamond&#39;, Georgia, serif" font-weight="600" font-size="22" fill="url(#heroGold)" text-anchor="middle" letter-spacing="3" opacity="0.35">CV</text>

  
  <g transform="translate(274, 62)">
    <rect x="0" y="4" width="52" height="38" rx="5" fill="#0a0a0f" stroke="#c9a84c" stroke-opacity="0.5" stroke-width="1.4"></rect>
    <path d="M16 4 L16 0 Q16 -4 26 -4 Q36 -4 36 0 L36 4" fill="none" stroke="#c9a84c" stroke-opacity="0.5" stroke-width="1.3"></path>
    <line x1="0" y1="20" x2="52" y2="20" stroke="#c9a84c" stroke-opacity="0.25" stroke-width="1"></line>
  </g>

  
  <g transform="translate(462, 215)">
    <circle cx="18" cy="16" r="14" fill="#0a0a0f" stroke="#c9a84c" stroke-opacity="0.5" stroke-width="1.4"></circle>
    <circle cx="18" cy="13" r="5" fill="none" stroke="#c9a84c" stroke-opacity="0.6" stroke-width="1.3"></circle>
    <line x1="18" y1="18" x2="18" y2="30" stroke="#c9a84c" stroke-opacity="0.5" stroke-width="1.3"></line>
  </g>

  
  <g transform="translate(268, 410)">
    <circle cx="28" cy="28" r="24" fill="#0a0a0f" stroke="#c9a84c" stroke-opacity="0.5" stroke-width="1.4"></circle>
    <polygon points="28,10 32,22 45,22 35,30 39,42 28,34 17,42 21,30 11,22 24,22" fill="#c9a84c" opacity="0.45"></polygon>
  </g>

  
  <g transform="translate(88, 215)">
    <circle cx="24" cy="24" r="22" fill="#0a0a0f" stroke="#c9a84c" stroke-opacity="0.5" stroke-width="1.4"></circle>
    <polyline points="10,24 20,34 38,14" fill="none" stroke="#c9a84c" stroke-opacity="0.7" stroke-width="2" stroke-linecap="round" stroke-linejoin="round"></polyline>
  </g>

  
  <line x1="300" y1="130" x2="300" y2="90" stroke="#c9a84c" stroke-opacity="0.12" stroke-width="1" stroke-dasharray="3 4"></line>
  <line x1="395" y1="250" x2="462" y2="250" stroke="#c9a84c" stroke-opacity="0.12" stroke-width="1" stroke-dasharray="3 4"></line>
  <line x1="300" y1="370" x2="300" y2="410" stroke="#c9a84c" stroke-opacity="0.12" stroke-width="1" stroke-dasharray="3 4"></line>
  <line x1="205" y1="250" x2="134" y2="250" stroke="#c9a84c" stroke-opacity="0.12" stroke-width="1" stroke-dasharray="3 4"></line>

  
  <circle cx="480" cy="100" r="3" fill="#c9a84c" opacity="0.2"></circle>
  <circle cx="120" cy="380" r="2" fill="#c9a84c" opacity="0.15"></circle>
  <circle cx="520" cy="390" r="2.5" fill="#c9a84c" opacity="0.15"></circle>
  <circle cx="80" cy="120" r="2" fill="#c9a84c" opacity="0.12"></circle>
</svg>