<svg xmlns="http://www.w3.org/2000/svg" viewBox="0 0 380 72" width="380" height="72" fill="none" role="img" aria-label="Make My CV">
  <defs>
    <linearGradient id="mmcvLogoGold" x1="8" y1="8" x2="56" y2="56" gradientUnits="userSpaceOnUse">
      <stop stop-color="#e8c97a"></stop>
      <stop offset="1" stop-color="#c9a84c"></stop>
    </linearGradient>
  </defs>

  
  <rect x="4" y="11" width="34" height="42" rx="3.5" fill="#0a0a0f" stroke="url(#mmcvLogoGold)" stroke-width="1.6"></rect>
  <path d="M27 11 L38 22 L27 22 Z" fill="#c9a84c" opacity="0.22"></path>
  <path d="M27 11 L38 22 L27 22 Z" fill="none" stroke="#c9a84c" stroke-width="1.3"></path>
  <text x="21" y="44" font-family="&#39;Cormorant Garamond&#39;, Georgia, serif" font-weight="600" font-size="14" fill="url(#mmcvLogoGold)" text-anchor="middle" letter-spacing="0.8">CV</text>
  <line x1="9" y1="28" x2="24" y2="28" stroke="#c9a84c" stroke-width="1" stroke-opacity="0.35"></line>
  <line x1="9" y1="32" x2="21" y2="32" stroke="#c9a84c" stroke-width="0.9" stroke-opacity="0.2"></line>

  
  <line x1="54" y1="18" x2="54" y2="54" stroke="#a8842f" stroke-opacity="0.3" stroke-width="1"></line>

  
  <text font-family="&#39;DM Sans&#39;, -apple-system, sans-serif" font-weight="300" font-size="26" fill="#f5f4f0" letter-spacing="0.3">
    <tspan x="68" y="45">Make My </tspan>
  </text>
  <text font-family="&#39;Cormorant Garamond&#39;, Georgia, serif" font-weight="600" font-size="30" fill="#c9a84c" letter-spacing="1.5">
    <tspan x="228" y="46">CV</tspan>
  </text>

  
  <g transform="translate(338, 8) scale(0.52)">
    <ellipse cx="32" cy="33" rx="27" ry="9.5" transform="rotate(-20 32 33)" stroke="#a8842f" stroke-width="1.4" opacity="0.45"></ellipse>
    <circle cx="32" cy="30" r="13" fill="#c9a84c" opacity="0.7"></circle>
    <path d="M5.5 38 A27 9.5 0 0 0 58.5 28" transform="rotate(-20 32 33)" stroke="#a8842f" stroke-width="1.8" fill="none"></path>
  </g>
  <text x="338" y="52" font-family="&#39;DM Sans&#39;, sans-serif" font-weight="300" font-size="7.5" fill="#a8842f" letter-spacing="0.5" opacity="0.7">by Real Plannet</text>
</svg>